<svg width="24" height="24" viewBox="0 0 24 24" fill="none" xmlns="http://www.w3.org/2000/svg">
<path d="M9.82126 6.74902H19.5038C19.9181 6.74902 20.2538 6.41323 20.2538 5.99902C20.2538 5.58481 19.9181 5.24902 19.5038 5.24902H9.82126C9.40704 5.24902 9.07126 5.58481 9.07126 5.99902C9.07126 6.41323 9.40704 6.74902 9.82126 6.74902ZM9.82104 12.7307H19.4681C19.8823 12.7307 20.2181 12.3949 20.2181 11.9807C20.2181 11.5665 19.8823 11.2307 19.4681 11.2307H9.82104C9.40683 11.2307 9.07104 11.5665 9.07104 11.9807C9.07104 12.3949 9.40683 12.7307 9.82104 12.7307ZM19.5038 17.2455H9.82126C9.40704 17.2455 9.07126 17.5813 9.07126 17.9955C9.07126 18.4097 9.40704 18.7455 9.82126 18.7455H19.5038C19.9181 18.7455 20.2538 18.4097 20.2538 17.9955C20.2538 17.5813 19.9181 17.2455 19.5038 17.2455V17.2455Z" fill="black"/>
<path d="M4.50098 5.99902C4.50098 6.39685 4.65901 6.77838 4.94032 7.05968C5.22162 7.34099 5.60315 7.49902 6.00098 7.49902C6.3988 7.49902 6.78033 7.34099 7.06164 7.05968C7.34294 6.77838 7.50098 6.39685 7.50098 5.99902C7.50098 5.6012 7.34294 5.21967 7.06164 4.93836C6.78033 4.65706 6.3988 4.49902 6.00098 4.49902C5.60315 4.49902 5.22162 4.65706 4.94032 4.93836C4.65901 5.21967 4.50098 5.6012 4.50098 5.99902V5.99902Z" fill="black"/>
<path d="M4.50098 11.9717C4.50098 12.3695 4.65901 12.751 4.94032 13.0323C5.22162 13.3136 5.60315 13.4717 6.00098 13.4717C6.3988 13.4717 6.78033 13.3136 7.06164 13.0323C7.34294 12.751 7.50098 12.3695 7.50098 11.9717C7.50098 11.5739 7.34294 11.1923 7.06164 10.911C6.78033 10.6297 6.3988 10.4717 6.00098 10.4717C5.60315 10.4717 5.22162 10.6297 4.94032 10.911C4.65901 11.1923 4.50098 11.5739 4.50098 11.9717V11.9717Z" fill="black"/>
<path d="M4.50098 17.9912C4.50098 18.389 4.65901 18.7706 4.94032 19.0519C5.22162 19.3332 5.60315 19.4912 6.00098 19.4912C6.3988 19.4912 6.78033 19.3332 7.06164 19.0519C7.34294 18.7706 7.50098 18.389 7.50098 17.9912C7.50098 17.5934 7.34294 17.2119 7.06164 16.9306C6.78033 16.6492 6.3988 16.4912 6.00098 16.4912C5.60315 16.4912 5.22162 16.6492 4.94032 16.9306C4.65901 17.2119 4.50098 17.5934 4.50098 17.9912V17.9912Z" fill="black"/>
</svg>
