<svg width="24" height="24" viewBox="0 0 24 24" fill="none" xmlns="http://www.w3.org/2000/svg">
<path d="M12 7.0791C10.0468 7.0791 8.21044 7.83974 6.82929 9.22089C5.44814 10.602 4.6875 12.4383 4.6875 14.3916C4.6875 14.8058 5.02329 15.1416 5.4375 15.1416C5.85171 15.1416 6.1875 14.8058 6.1875 14.3916C6.1875 12.839 6.79209 11.3794 7.88995 10.2815C8.98779 9.1837 10.4474 8.57908 12 8.57908C13.5526 8.57908 15.0122 9.18367 16.11 10.2815C17.2079 11.3794 17.8125 12.839 17.8125 14.3916C17.8125 14.8058 18.1483 15.1416 18.5625 15.1416C18.9767 15.1416 19.3125 14.8058 19.3125 14.3916C19.3125 12.4383 18.5519 10.602 17.1707 9.22087C15.7896 7.83972 13.9532 7.0791 12 7.0791Z" fill="white"/>
<path d="M12 3.70312C6.201 3.70312 1.5 8.40413 1.5 14.2031C1.5 16.3125 2.12215 18.2765 3.19275 19.9219H20.8073C21.8779 18.2765 22.5 16.3125 22.5 14.2031C22.5 8.40413 17.799 3.70312 12 3.70312ZM19.9521 18.4219H4.04794C3.3603 17.1284 3 15.685 3 14.2031C3 12.9875 3.23775 11.809 3.70664 10.7004C4.15985 9.62883 4.809 8.66618 5.63604 7.83916C6.46305 7.01213 7.4257 6.363 8.49724 5.90977C9.60586 5.44087 10.7843 5.20312 12 5.20312C13.2157 5.20312 14.3941 5.44087 15.5028 5.90977C16.5743 6.36298 17.5369 7.01213 18.364 7.83916C19.191 8.66618 19.8401 9.62883 20.2934 10.7004C20.7622 11.809 21 12.9875 21 14.2031C21 15.685 20.6397 17.1284 19.9521 18.4219Z" fill="white"/>
<path d="M12.4745 13.7455C12.2401 13.7454 12.0078 13.7893 11.7897 13.8751L10.1705 12.2558C9.87758 11.9629 9.40271 11.9629 9.10981 12.2558C8.81691 12.5487 8.81691 13.0236 9.10981 13.3165L10.7291 14.9357C10.6433 15.1538 10.5994 15.3861 10.5995 15.6205C10.5995 16.656 11.4389 17.4955 12.4745 17.4955C13.51 17.4955 14.3495 16.656 14.3495 15.6205C14.3495 14.585 13.51 13.7455 12.4745 13.7455Z" fill="white"/>
</svg>
