<svg width="24" height="24" viewBox="0 0 24 24" fill="none" xmlns="http://www.w3.org/2000/svg">
<path d="M15.3023 4.43624C14.9264 4.27082 14.4875 4.4414 14.3221 4.81729C14.1567 5.19318 14.3273 5.632 14.7031 5.79742C17.1559 6.87695 18.7407 9.30559 18.7407 11.9847C18.7407 13.7894 18.0379 15.4861 16.7618 16.7622C15.4857 18.0383 13.789 18.7411 11.9843 18.7411C10.1796 18.7411 8.48293 18.0383 7.20683 16.7622C5.9307 15.4861 5.22793 13.7894 5.22793 11.9847C5.22793 9.29027 6.8254 6.85609 9.29766 5.78336C9.67442 5.61988 9.8473 5.18198 9.68384 4.80524C9.52037 4.42848 9.08239 4.25558 8.7057 4.41906C5.68958 5.72774 3.74072 8.69744 3.74072 11.9847C3.74072 13.0972 3.95879 14.1769 4.38884 15.1937C4.80408 16.1754 5.39836 17.0569 6.15521 17.8138C6.91205 18.5706 7.79356 19.1649 8.77531 19.5801C9.7921 20.0102 10.8718 20.2282 11.9843 20.2282C13.0969 20.2282 14.1766 20.0102 15.1933 19.5801C16.1751 19.1649 17.0566 18.5706 17.8134 17.8138C18.5702 17.0569 19.1645 16.1754 19.5798 15.1937C20.0098 14.1769 20.2279 13.0972 20.2279 11.9847C20.2279 8.71614 18.2945 5.75319 15.3023 4.43624V4.43624Z" fill="black"/>
<path d="M11.9999 11.2387C12.4106 11.2387 12.7435 10.9057 12.7435 10.4951V3.00532C12.7435 2.59465 12.4106 2.26172 11.9999 2.26172C11.5893 2.26172 11.2563 2.59465 11.2563 3.00532V10.4951C11.2563 10.9057 11.5893 11.2387 11.9999 11.2387Z" fill="black"/>
</svg>
