<svg width="24" height="24" viewBox="0 0 24 24" fill="none" xmlns="http://www.w3.org/2000/svg">
<path d="M12.0001 3C12.6932 3 13.377 3.07629 14.0426 3.22614L14.4267 3.31261L15.6245 6.04327L18.5736 5.72087L18.8402 6.01125C19.7735 7.02785 20.4737 8.24037 20.8843 9.56459L21 9.93789L20.7699 10.2538L19.2451 12.3476L21 14.7573L20.8843 15.1306C20.4737 16.4548 19.7735 17.6674 18.8402 18.6839L18.5736 18.9743L15.6245 18.6519L14.4267 21.3826L14.0426 21.4691C13.377 21.6189 12.6932 21.6952 12.0001 21.6952C11.3068 21.6952 10.6229 21.6189 9.95711 21.469L9.57298 21.3825L9.41485 21.0218L8.37565 18.6519L5.42658 18.9743L5.15998 18.6839C4.22653 17.6672 3.52623 16.4545 3.11572 15.1301L3 14.7568L3.23014 14.4409L4.75498 12.3476L3 9.9384L3.11572 9.56506C3.52623 8.24066 4.22653 7.02797 5.15998 6.01125L5.42658 5.72087L8.37565 6.04327L9.57298 3.31275L9.95711 3.22624C10.6229 3.07632 11.3068 3 12.0001 3ZM12.0001 4.55793C11.5533 4.55793 11.1118 4.59589 10.6787 4.67071L9.71899 6.85923C9.49526 7.36925 8.9664 7.67505 8.41275 7.61454L6.05281 7.35655C5.48276 8.04269 5.03331 8.82236 4.72651 9.66255L6.13562 11.5969C6.46146 12.0443 6.46146 12.6509 6.13557 13.0983L4.72651 15.0327C5.03331 15.8728 5.48276 16.6525 6.05281 17.3387L8.41277 17.0807C8.9664 17.0201 9.49526 17.326 9.71904 17.8361L10.6787 20.0245C11.1118 20.0993 11.5533 20.1373 12.0001 20.1373C12.4467 20.1373 12.8881 20.0993 13.3211 20.0246L14.2811 17.836C14.5049 17.326 15.0337 17.0201 15.5874 17.0807L17.9473 17.3387C18.5173 16.6526 18.9667 15.8731 19.2735 15.033L17.8645 13.0983C17.5387 12.6509 17.5387 12.0443 17.8645 11.597L19.2735 9.6622C18.9667 8.82214 18.5173 8.04259 17.9473 7.35655L15.5874 7.61454C15.0337 7.67505 14.5049 7.36925 14.2811 6.85921L13.3211 4.67065C12.8881 4.59587 12.4467 4.55793 12.0001 4.55793ZM12.0001 8.45277C14.1438 8.45277 15.8801 10.1974 15.8801 12.3476C15.8801 14.4978 14.1438 16.2424 12.0001 16.2424C9.85637 16.2424 8.12007 14.4978 8.12007 12.3476C8.12007 10.1974 9.85637 8.45277 12.0001 8.45277ZM12.0001 10.0107C10.7185 10.0107 9.67801 11.0561 9.67801 12.3476C9.67801 13.6391 10.7185 14.6845 12.0001 14.6845C13.2817 14.6845 14.3221 13.6391 14.3221 12.3476C14.3221 11.0561 13.2817 10.0107 12.0001 10.0107Z" fill="white"/>
</svg>
