<svg width="24" height="24" viewBox="0 0 24 24" fill="none" xmlns="http://www.w3.org/2000/svg">
<path d="M21.3276 9.64465C21.2846 9.51253 21.2056 9.39505 21.0994 9.3055C20.9932 9.21595 20.864 9.15791 20.7265 9.13794L15.2837 8.34706L12.8496 3.41504C12.7881 3.29046 12.693 3.18556 12.575 3.11222C12.457 3.03887 12.3209 3 12.182 3C12.043 3 11.9069 3.03887 11.7889 3.11222C11.6709 3.18556 11.5758 3.29046 11.5143 3.41504L9.08024 8.34708L3.63742 9.13796C3.49995 9.15795 3.37081 9.216 3.26461 9.30554C3.15841 9.39509 3.07937 9.51256 3.03644 9.64468C2.99352 9.77679 2.9884 9.91829 3.02168 10.0532C3.05497 10.188 3.12532 10.3109 3.22478 10.4079L7.16326 14.2469L6.23352 19.6677C6.21003 19.8047 6.22531 19.9454 6.27765 20.0741C6.32999 20.2028 6.41729 20.3143 6.52969 20.396C6.64208 20.4776 6.77508 20.5262 6.91365 20.5362C7.05221 20.5462 7.19081 20.5173 7.31378 20.4526L12.182 17.8932L17.0502 20.4526C17.2123 20.5381 17.5858 20.558 17.8343 20.3959C18.0707 20.2417 18.1784 19.9471 18.1304 19.6677L17.2007 14.2469L21.1392 10.4079C21.2386 10.3109 21.309 10.188 21.3423 10.0532C21.3756 9.91828 21.3705 9.77678 21.3276 9.64465V9.64465ZM15.8811 13.4539C15.7946 13.5381 15.73 13.6421 15.6927 13.7569C15.6554 13.8717 15.6465 13.9939 15.6669 14.1129L16.4078 18.4326L12.5284 16.3931C12.4216 16.3369 12.3027 16.3076 12.182 16.3076C12.0612 16.3076 11.9423 16.3369 11.8355 16.3931L7.95611 18.4326L8.69699 14.1129C8.7174 13.9939 8.70857 13.8718 8.67127 13.757C8.63398 13.6421 8.56932 13.5381 8.48289 13.4539L5.34437 10.3946L9.68167 9.76435C9.80113 9.74699 9.91457 9.70085 10.0122 9.6299C10.1099 9.55895 10.1888 9.46532 10.2422 9.35708L12.182 5.4268L14.1217 9.35705C14.1751 9.46529 14.2541 9.55893 14.3517 9.62988C14.4494 9.70083 14.5628 9.74697 14.6822 9.76433L19.0196 10.3946L15.8811 13.4539Z" fill="white"/>
</svg>
