<svg width="24" height="24" viewBox="0 0 24 24" fill="none" xmlns="http://www.w3.org/2000/svg">
<path d="M12.0126 10.7485C9.79657 10.7485 7.99372 9.0105 7.99372 6.87424C7.99372 4.73799 9.79657 3 12.0126 3C14.2286 3 16.0314 4.73799 16.0314 6.87424C16.0314 9.0105 14.2286 10.7485 12.0126 10.7485ZM12.0126 4.5497C10.683 4.5497 9.60126 5.59247 9.60126 6.87424C9.60126 8.15601 10.683 9.19879 12.0126 9.19879C13.3422 9.19879 14.4239 8.15601 14.4239 6.87424C14.4239 5.59247 13.3422 4.5497 12.0126 4.5497ZM10.5784 21C8.15214 21 5.93326 20.9079 4.76956 19.7904C4.25891 19.3 4 18.665 4 17.9032C4 17.1373 4.25738 16.3823 4.76501 15.6589C5.21658 15.0155 5.84276 14.4303 6.62619 13.9195C8.17597 12.9093 10.1392 12.3298 12.0126 12.3298C13.8851 12.3298 15.8443 12.9096 17.3878 13.9205C18.1677 14.4312 18.7909 15.0167 19.2401 15.6607C19.7444 16.3834 20 17.1379 20 17.9032C20 18.6672 19.7409 19.3034 19.2298 19.7942C17.956 21.0176 15.4164 21.008 12.7273 20.9982C12.2508 20.9965 11.7743 20.9964 11.2978 20.9982C11.0565 20.9991 10.8164 21 10.5784 21ZM12.0126 19.4467C12.2529 19.4467 12.4935 19.4476 12.7335 19.4485C13.9773 19.4531 15.1519 19.4575 16.1447 19.3421C17.1096 19.2299 17.7659 19.0127 18.0953 18.6963C18.2228 18.5738 18.3925 18.3583 18.3925 17.9032C18.3925 16.9809 17.697 15.9965 16.4844 15.2024C15.2008 14.3617 13.5709 13.8795 12.0126 13.8795C8.83996 13.8795 5.60754 15.9102 5.60754 17.9032C5.60754 18.3554 5.77678 18.5702 5.9041 18.6925C6.709 19.4654 9.14366 19.4564 11.2916 19.4485C11.5317 19.4476 11.7724 19.4467 12.0126 19.4467Z" fill="black"/>
</svg>
